<svg height="413px" version="1.1" width="745px" xmlns="http://www.w3.org/2000/svg"><g transform="translate(0.5,0.5)"><path d="M 335 95.33 Q 62.83 95.33 62.83 219.76" fill="none" pointer-events="none" stroke="#cc0000" stroke-miterlimit="10" stroke-width="2"></path><path d="M 62.83 225.76 L 60.17 217.76 L 62.83 219.76 L 65.5 217.76 Z" fill="#cc0000" pointer-events="none" stroke="#cc0000" stroke-miterlimit="10" stroke-width="2"></path><g transform="translate(155.5,88.5)"><switch><text fill="#990000" font-family="Helvetica" font-size="14px" font-weight="bold" text-anchor="middle" x="15" y="14">Fork</text></switch></g><path d="M 335 95.33 Q 257.83 95.33 257.83 269.76" fill="none" pointer-events="none" stroke="#cc0000" stroke-miterlimit="10" stroke-width="2"></path><path d="M 257.83 275.76 L 255.17 267.76 L 257.83 269.76 L 260.5 267.76 Z" fill="#cc0000" pointer-events="none" stroke="#cc0000" stroke-miterlimit="10" stroke-width="2"></path><g transform="translate(242.5,140.5)"><switch><text fill="#990000" font-family="Helvetica" font-size="14px" font-weight="bold" text-anchor="middle" x="15" y="14">Fork</text></switch></g><path d="M 410 95.33 Q 487.83 95.33 487.83 269.76" fill="none" pointer-events="none" stroke="#cc0000" stroke-miterlimit="10" stroke-width="2"></path><path d="M 487.83 275.76 L 485.17 267.76 L 487.83 269.76 L 490.5 267.76 Z" fill="#cc0000" pointer-events="none" stroke="#cc0000" stroke-miterlimit="10" stroke-width="2"></path><g transform="translate(454.5,141.5)"><switch><text fill="#990000" font-family="Helvetica" font-size="14px" font-weight="bold" text-anchor="middle" x="30" y="14">Fork</text></switch></g><path d="M 410 95.33 Q 682.83 95.33 682.83 219.76" fill="none" pointer-events="none" stroke="#cc0000" stroke-miterlimit="10" stroke-width="2"></path><path d="M 682.83 225.76 L 680.17 217.76 L 682.83 219.76 L 685.5 217.76 Z" fill="#cc0000" pointer-events="none" stroke="#cc0000" stroke-miterlimit="10" stroke-width="2"></path><g transform="translate(597.5,87.5)"><switch><text fill="#990000" font-family="Helvetica" font-size="14px" font-weight="bold" text-anchor="middle" x="15" y="14">Fork</text></switch></g><path d="M 372.59 133 C 350.47 133 335 114.97 335 95.79 C 335 72.85 353.47 58 372.87 58 C 391.56 58 410 73.33 410 95.49 C 410 115.34 394.21 133 372.59 133 Z" fill="#0d2636" pointer-events="none" stroke="none"></path><path d="M 364.48 124.79 C 364.48 126.41 363.25 127.08 361.41 126.45 C 350.31 122.56 339.64 110.55 339.64 95.55 C 339.64 75.26 357 62.47 372.04 62.47 C 391.56 62.47 405.45 78.47 405.45 95.35 C 405.45 109.29 396.48 122.12 383.04 126.62 C 381.52 127.02 380.58 126.21 380.58 124.88 L 380.58 115.11 C 380.58 113.22 379.81 111.21 378.39 109.81 C 383.85 109.19 387.16 107.82 389.69 105.21 C 392.18 102.74 393.3 99.11 393.51 94.63 C 393.64 91.07 392.7 87.6 390.12 84.95 C 391.01 82.77 391.17 79.87 389.81 76.29 C 387.11 76.08 384.03 77.7 380.88 79.65 C 375.34 78.21 369.8 78.02 364.27 79.73 C 361.79 78.12 359.54 76.31 355.25 76.29 C 354.12 79.45 353.94 82.34 354.91 84.9 C 351.85 88.3 351.5 91.64 351.55 94.97 C 351.89 101.39 354.24 104.64 356.85 106.58 C 359.02 108.19 362.06 109.2 366.69 109.88 C 365.45 111.11 364.75 112.58 364.63 114.29 C 361.91 115.54 358.01 116.16 355.34 112.38 C 354.15 110.48 352.53 108.34 349.44 108.35 C 348.94 108.33 348.44 108.53 348.36 108.75 C 348.3 108.99 348.58 109.49 348.92 109.69 C 351.62 111.4 352.06 112.37 353.16 114.72 C 354.19 117.46 355.96 118.52 357.88 119.26 C 359.84 119.95 363.02 119.76 364.48 119.26 Z" fill="#ffffff" pointer-events="none" stroke="none"></path><g transform="translate(313.5,-0.5)"><switch><text fill="#000000" font-family="Helvetica" font-size="14px" font-weight="bold" text-anchor="middle" x="59" y="28">Origin Repository</text></switch></g><path d="M 645 265.33 Q 527.83 265.33 527.83 180.75 Q 527.83 96.17 418.57 96.17" fill="none" pointer-events="none" stroke="#00994d" stroke-dasharray="6 6" stroke-miterlimit="10" stroke-width="2"></path><path d="M 412.57 96.17 L 420.57 93.5 L 418.57 96.17 L 420.57 98.83 Z" fill="#00994d" pointer-events="none" stroke="#00994d" stroke-miterlimit="10" stroke-width="2"></path><g transform="translate(511.5,181.5)"><switch><text fill="#006600" font-family="Helvetica" font-size="14px" font-weight="bold" text-anchor="middle" x="10" y="14">PR</text></switch></g><path d="M 682.59 303 C 660.47 303 645 284.97 645 265.79 C 645 242.85 663.47 228 682.87 228 C 701.56 228 720 243.33 720 265.49 C 720 285.34 704.21 303 682.59 303 Z" fill="#0d2636" pointer-events="none" stroke="none"></path><path d="M 674.48 294.79 C 674.48 296.41 673.25 297.08 671.41 296.45 C 660.31 292.56 649.64 280.55 649.64 265.55 C 649.64 245.26 667 232.47 682.04 232.47 C 701.56 232.47 715.45 248.47 715.45 265.35 C 715.45 279.29 706.48 292.12 693.04 296.62 C 691.52 297.02 690.58 296.21 690.58 294.88 L 690.58 285.11 C 690.58 283.22 689.81 281.21 688.39 279.81 C 693.85 279.19 697.16 277.82 699.69 275.21 C 702.18 272.74 703.3 269.11 703.51 264.63 C 703.64 261.07 702.7 257.6 700.12 254.95 C 701.01 252.77 701.17 249.87 699.81 246.29 C 697.11 246.08 694.03 247.7 690.88 249.65 C 685.34 248.21 679.8 248.02 674.27 249.73 C 671.79 248.12 669.54 246.31 665.25 246.29 C 664.12 249.45 663.94 252.34 664.91 254.9 C 661.85 258.3 661.5 261.64 661.55 264.97 C 661.89 271.39 664.24 274.64 666.85 276.58 C 669.02 278.19 672.06 279.2 676.69 279.88 C 675.45 281.11 674.75 282.58 674.63 284.29 C 671.91 285.54 668.01 286.16 665.34 282.38 C 664.15 280.48 662.53 278.34 659.44 278.35 C 658.94 278.33 658.44 278.53 658.36 278.75 C 658.3 278.99 658.58 279.49 658.92 279.69 C 661.62 281.4 662.06 282.37 663.16 284.72 C 664.19 287.46 665.96 288.52 667.88 289.26 C 669.84 289.95 673.02 289.76 674.48 289.26 Z" fill="#ffffff" pointer-events="none" stroke="none"></path><g transform="translate(620.5,310.5)"><switch><text fill="#000000" font-family="Helvetica" font-size="14px" font-weight="bold" text-anchor="middle" x="62" y="28">Forked Repository</text></switch></g><path d="M 450 315.33 Q 387 315.33 387 139.4" fill="none" pointer-events="none" stroke="#00994d" stroke-dasharray="6 6" stroke-miterlimit="10" stroke-width="2"></path><path d="M 387 133.4 L 389.67 141.4 L 387 139.4 L 384.33 141.4 Z" fill="#00994d" pointer-events="none" stroke="#00994d" stroke-miterlimit="10" stroke-width="2"></path><g transform="translate(379.5,205.5)"><switch><text fill="#006600" font-family="Helvetica" font-size="14px" font-weight="bold" text-anchor="middle" x="10" y="14">PR</text></switch></g><path d="M 487.59 353 C 465.47 353 450 334.97 450 315.79 C 450 292.85 468.47 278 487.87 278 C 506.56 278 525 293.33 525 315.49 C 525 335.34 509.21 353 487.59 353 Z" fill="#0d2636" pointer-events="none" stroke="none"></path><path d="M 479.48 344.79 C 479.48 346.41 478.25 347.08 476.41 346.45 C 465.31 342.56 454.64 330.55 454.64 315.55 C 454.64 295.26 472 282.47 487.04 282.47 C 506.56 282.47 520.45 298.47 520.45 315.35 C 520.45 329.29 511.48 342.12 498.04 346.62 C 496.52 347.02 495.58 346.21 495.58 344.88 L 495.58 335.11 C 495.58 333.22 494.81 331.21 493.39 329.81 C 498.85 329.19 502.16 327.82 504.69 325.21 C 507.18 322.74 508.3 319.11 508.51 314.63 C 508.64 311.07 507.7 307.6 505.12 304.95 C 506.01 302.77 506.17 299.87 504.81 296.29 C 502.11 296.08 499.03 297.7 495.88 299.65 C 490.34 298.21 484.8 298.02 479.27 299.73 C 476.79 298.12 474.54 296.31 470.25 296.29 C 469.12 299.45 468.94 302.34 469.91 304.9 C 466.85 308.3 466.5 311.64 466.55 314.97 C 466.89 321.39 469.24 324.64 471.85 326.58 C 474.02 328.19 477.06 329.2 481.69 329.88 C 480.45 331.11 479.75 332.58 479.63 334.29 C 476.91 335.54 473.01 336.16 470.34 332.38 C 469.15 330.48 467.53 328.34 464.44 328.35 C 463.94 328.33 463.44 328.53 463.36 328.75 C 463.3 328.99 463.58 329.49 463.92 329.69 C 466.62 331.4 467.06 332.37 468.16 334.72 C 469.19 337.46 470.96 338.52 472.88 339.26 C 474.84 339.95 478.02 339.76 479.48 339.26 Z" fill="#ffffff" pointer-events="none" stroke="none"></path><g transform="translate(425.5,369.5)"><switch><text fill="#000000" font-family="Helvetica" font-size="14px" font-weight="bold" text-anchor="middle" x="62" y="28">Forked Repository</text></switch></g><path d="M 295 315.33 Q 348.67 315.33 348.67 136.07" fill="none" pointer-events="none" stroke="#00994d" stroke-dasharray="6 6" stroke-miterlimit="10" stroke-width="2"></path><path d="M 348.67 130.07 L 351.33 138.07 L 348.67 136.07 L 346 138.07 Z" fill="#00994d" pointer-events="none" stroke="#00994d" stroke-miterlimit="10" stroke-width="2"></path><g transform="translate(337.5,198.5)"><switch><text fill="#006600" font-family="Helvetica" font-size="14px" font-weight="bold" text-anchor="middle" x="10" y="14">PR</text></switch></g><path d="M 257.59 353 C 235.47 353 220 334.97 220 315.79 C 220 292.85 238.47 278 257.87 278 C 276.56 278 295 293.33 295 315.49 C 295 335.34 279.21 353 257.59 353 Z" fill="#0d2636" pointer-events="none" stroke="none"></path><path d="M 249.48 344.79 C 249.48 346.41 248.25 347.08 246.41 346.45 C 235.31 342.56 224.64 330.55 224.64 315.55 C 224.64 295.26 242 282.47 257.04 282.47 C 276.56 282.47 290.45 298.47 290.45 315.35 C 290.45 329.29 281.48 342.12 268.04 346.62 C 266.52 347.02 265.58 346.21 265.58 344.88 L 265.58 335.11 C 265.58 333.22 264.81 331.21 263.39 329.81 C 268.85 329.19 272.16 327.82 274.69 325.21 C 277.18 322.74 278.3 319.11 278.51 314.63 C 278.64 311.07 277.7 307.6 275.12 304.95 C 276.01 302.77 276.17 299.87 274.81 296.29 C 272.11 296.08 269.03 297.7 265.88 299.65 C 260.34 298.21 254.8 298.02 249.27 299.73 C 246.79 298.12 244.54 296.31 240.25 296.29 C 239.12 299.45 238.94 302.34 239.91 304.9 C 236.85 308.3 236.5 311.64 236.55 314.97 C 236.89 321.39 239.24 324.64 241.85 326.58 C 244.02 328.19 247.06 329.2 251.69 329.88 C 250.45 331.11 249.75 332.58 249.63 334.29 C 246.91 335.54 243.01 336.16 240.34 332.38 C 239.15 330.48 237.53 328.34 234.44 328.35 C 233.94 328.33 233.44 328.53 233.36 328.75 C 233.3 328.99 233.58 329.49 233.92 329.69 C 236.62 331.4 237.06 332.37 238.16 334.72 C 239.19 337.46 240.96 338.52 242.88 339.26 C 244.84 339.95 248.02 339.76 249.48 339.26 Z" fill="#ffffff" pointer-events="none" stroke="none"></path><g transform="translate(195.5,369.5)"><switch><text fill="#000000" font-family="Helvetica" font-size="14px" font-weight="bold" text-anchor="middle" x="62" y="28">Forked Repository</text></switch></g><path d="M 100 265.33 Q 135.33 265.33 135.33 180.75 Q 135.33 96.17 326.76 96.17" fill="none" pointer-events="none" stroke="#00994d" stroke-dasharray="6 6" stroke-miterlimit="10" stroke-width="2"></path><path d="M 332.76 96.17 L 324.76 98.83 L 326.76 96.17 L 324.76 93.5 Z" fill="#00994d" pointer-events="none" stroke="#00994d" stroke-miterlimit="10" stroke-width="2"></path><g transform="translate(124.5,173.5)"><switch><text fill="#006600" font-family="Helvetica" font-size="14px" font-weight="bold" text-anchor="middle" x="10" y="14">PR</text></switch></g><path d="M 62.59 303 C 40.47 303 25 284.97 25 265.79 C 25 242.85 43.47 228 62.87 228 C 81.56 228 100 243.33 100 265.49 C 100 285.34 84.21 303 62.59 303 Z" fill="#0d2636" pointer-events="none" stroke="none"></path><path d="M 54.48 294.79 C 54.48 296.41 53.25 297.08 51.41 296.45 C 40.31 292.56 29.64 280.55 29.64 265.55 C 29.64 245.26 47 232.47 62.04 232.47 C 81.56 232.47 95.45 248.47 95.45 265.35 C 95.45 279.29 86.48 292.12 73.04 296.62 C 71.52 297.02 70.58 296.21 70.58 294.88 L 70.58 285.11 C 70.58 283.22 69.81 281.21 68.39 279.81 C 73.85 279.19 77.16 277.82 79.69 275.21 C 82.18 272.74 83.3 269.11 83.51 264.63 C 83.64 261.07 82.7 257.6 80.12 254.95 C 81.01 252.77 81.17 249.87 79.81 246.29 C 77.11 246.08 74.03 247.7 70.88 249.65 C 65.34 248.21 59.8 248.02 54.27 249.73 C 51.79 248.12 49.54 246.31 45.25 246.29 C 44.12 249.45 43.94 252.34 44.91 254.9 C 41.85 258.3 41.5 261.64 41.55 264.97 C 41.89 271.39 44.24 274.64 46.85 276.58 C 49.02 278.19 52.06 279.2 56.69 279.88 C 55.45 281.11 54.75 282.58 54.63 284.29 C 51.91 285.54 48.01 286.16 45.34 282.38 C 44.15 280.48 42.53 278.34 39.44 278.35 C 38.94 278.33 38.44 278.53 38.36 278.75 C 38.3 278.99 38.58 279.49 38.92 279.69 C 41.62 281.4 42.06 282.37 43.16 284.72 C 44.19 287.46 45.96 288.52 47.88 289.26 C 49.84 289.95 53.02 289.76 54.48 289.26 Z" fill="#ffffff" pointer-events="none" stroke="none"></path><g transform="translate(0.5,319.5)"><switch><text fill="#000000" font-family="Helvetica" font-size="14px" font-weight="bold" text-anchor="middle" x="62" y="28">Forked Repository</text></switch></g></g></svg>
